<svg width="14" height="14" viewBox="0 0 14 14" fill="none" xmlns="http://www.w3.org/2000/svg">
<path fill-rule="evenodd" clip-rule="evenodd" d="M12.3335 4.3335V2.3335H11.0002V3.00016H9.66683V2.3335H4.3335V3.00016H3.00016V2.3335H1.66683V4.3335H12.3335ZM12.3335 5.66683H1.66683V12.3335H12.3335V5.66683ZM11.0002 1.00016H12.3335C13.0699 1.00016 13.6668 1.59712 13.6668 2.3335V12.3335C13.6668 13.0699 13.0699 13.6668 12.3335 13.6668H1.66683C0.93045 13.6668 0.333496 13.0699 0.333496 12.3335V2.3335C0.333496 1.59712 0.93045 1.00016 1.66683 1.00016H3.00016V0.333496H4.3335V1.00016H9.66683V0.333496H11.0002V1.00016ZM5.00016 8.3335H3.66683V7.00016H5.00016V8.3335ZM7.66683 8.3335H6.3335V7.00016H7.66683V8.3335ZM10.3335 8.3335H9.00016V7.00016H10.3335V8.3335ZM5.00016 11.0002H3.66683V9.66683H5.00016V11.0002ZM7.66683 11.0002H6.3335V9.66683H7.66683V11.0002Z" fill="#333333" fill-opacity="0.6"/>
</svg>
