<svg width="12" height="16" viewBox="0 0 12 16" fill="none" xmlns="http://www.w3.org/2000/svg">
<path fill-rule="evenodd" clip-rule="evenodd" d="M6.43849 14.6687L6 15.0516L5.56151 14.6687C1.87421 11.449 0 8.63768 0 6.1665C0 2.66695 2.73137 0.166504 6 0.166504C9.26863 0.166504 12 2.66695 12 6.1665C12 8.63768 10.1258 11.449 6.43849 14.6687ZM1.33333 6.1665C1.33333 8.06599 2.87107 10.4555 6 13.2754C9.12893 10.4555 10.6667 8.06599 10.6667 6.1665C10.6667 3.43091 8.55726 1.49984 6 1.49984C3.44274 1.49984 1.33333 3.43091 1.33333 6.1665ZM6 2.83317C7.84095 2.83317 9.33333 4.32555 9.33333 6.1665C9.33333 8.00745 7.84095 9.49984 6 9.49984C4.15905 9.49984 2.66667 8.00745 2.66667 6.1665C2.66667 4.32555 4.15905 2.83317 6 2.83317ZM6 4.1665C4.89543 4.1665 4 5.06193 4 6.1665C4 7.27107 4.89543 8.1665 6 8.1665C7.10457 8.1665 8 7.27107 8 6.1665C8 5.06193 7.10457 4.1665 6 4.1665Z" fill="#23BFD4"/>
</svg>
