<svg width="18" height="17" viewBox="0 0 18 17" fill="none" xmlns="http://www.w3.org/2000/svg">
<path fill-rule="evenodd" clip-rule="evenodd" d="M12.5997 10.9212L17.0891 15.4106L15.9106 16.5891L11.4212 12.0997C10.2923 12.9773 8.87376 13.4998 7.33317 13.4998C3.65127 13.4998 0.666504 10.5151 0.666504 6.83317C0.666504 3.15127 3.65127 0.166504 7.33317 0.166504C11.0151 0.166504 13.9998 3.15127 13.9998 6.83317C13.9998 8.37376 13.4773 9.7923 12.5997 10.9212ZM7.33317 11.8332C10.0946 11.8332 12.3332 9.59459 12.3332 6.83317C12.3332 4.07175 10.0946 1.83317 7.33317 1.83317C4.57175 1.83317 2.33317 4.07175 2.33317 6.83317C2.33317 9.59459 4.57175 11.8332 7.33317 11.8332Z" fill="white"/>
</svg>
