<svg width="11" height="20" viewBox="0 0 11 20" fill="none" xmlns="http://www.w3.org/2000/svg">
<path d="M4.67922 19.701C4.63419 19.508 4.55953 19.1969 4.48962 18.8848C4.44873 18.7015 4.44933 18.5022 4.37289 18.3343C4.24373 18.0491 4.1193 17.7335 3.89889 17.5221C3.65596 17.289 3.32475 17.1177 3.00124 16.9923C2.20195 16.6824 1.79608 16.0941 1.5656 15.3272C1.40799 14.8031 1.18876 14.2956 0.979015 13.7875C0.940502 13.6947 0.814299 13.6363 0.728385 13.5624C0.397174 13.2772 0.429762 12.5068 0.803041 12.2387C0.678615 12.1236 0.659062 12.0285 0.686317 11.828C0.7272 11.5279 0.804226 11.1796 0.638324 10.8377C0.543523 10.6423 0.634769 10.3416 0.696982 10.1016C0.778156 9.78773 1.05723 9.5546 1.06434 9.18745C1.06848 8.98525 1.25335 8.78477 1.36 8.58602C1.51109 8.30535 1.67106 8.02927 1.81682 7.74631C1.97383 7.44101 2.05678 7.12197 2.36667 6.87166C2.5776 6.70154 2.58945 6.31032 2.71447 6.02794C2.80571 5.82231 2.94258 5.63558 3.04923 5.4351C3.26905 5.02269 3.47821 4.60456 3.70395 4.19558C3.73298 4.14346 3.83786 4.10852 3.90955 4.10508C4.08197 4.09706 4.1744 4.03062 4.23662 3.8668C4.45169 3.29974 4.65789 2.72695 4.92511 2.1828C5.02465 1.98003 5.27172 1.83626 5.4714 1.69192C5.59938 1.5997 5.7635 1.55388 5.91222 1.48915C6.16167 1.37975 6.404 1.24858 6.66352 1.17011C6.9183 1.09278 7.10079 1.00572 7.13871 0.709585C7.18196 0.373357 7.69745 -0.0230132 8.03873 0.00104397C8.13175 0.00791744 8.22774 0.113311 8.30239 0.19121C8.39305 0.286293 8.4677 0.396842 8.54117 0.506245C8.81077 0.908343 9.28536 0.825861 9.66753 0.963904C9.79432 1.00973 9.95489 1.10309 9.994 1.21078C10.0704 1.42156 10.1824 1.53097 10.4093 1.5407C10.4437 1.54242 10.4763 1.57507 10.5 1.58767C10.2671 1.79789 10.0722 1.99493 9.85476 2.1639C9.52651 2.41879 9.51288 2.73898 9.59761 3.09468C9.63257 3.24132 9.64738 3.39196 9.67819 3.53917C9.70071 3.64857 9.71671 3.7637 9.76648 3.86165C9.87905 4.08103 10.1291 4.28494 9.80143 4.52322C9.78188 5.0542 9.2273 5.41276 9.30077 5.97581C9.3061 6.0182 9.28418 6.08808 9.25159 6.10641C8.89727 6.30574 8.86883 6.68436 8.71833 6.99481C8.70589 7.02058 8.67627 7.05552 8.68456 7.07156C8.85757 7.39805 8.64664 7.71309 8.65671 8.03442C8.65849 8.09113 8.67686 8.15471 8.65671 8.20339C8.37053 8.88501 8.36757 9.61761 8.26566 10.3296C8.19396 10.8314 8.1513 11.3274 7.88645 11.7793C7.84557 11.8486 7.84379 11.9471 7.84557 12.0319C7.8592 12.6545 7.59376 13.1912 7.29987 13.7199C7.1636 13.9651 7.11679 14.2503 6.8395 14.4308C6.73047 14.5018 6.76662 14.7544 6.67833 14.8884C6.55983 15.0694 6.36371 15.2029 6.23988 15.3816C6.08286 15.6078 5.90926 15.8456 5.84231 16.1022C5.71255 16.6051 5.629 17.1217 5.57153 17.6378C5.54072 17.9156 5.59879 18.2037 5.62427 18.4861C5.64086 18.6751 5.693 18.8642 5.68589 19.0509C5.68055 19.1803 5.60056 19.3069 5.55435 19.4347C5.52058 19.4312 5.48621 19.4278 5.45244 19.4243C5.52413 19.6036 5.59583 19.7823 5.68352 20C5.33868 19.8975 5.06553 19.8161 4.67922 19.701Z" fill="white"/>
</svg>
