<svg width="42" height="18" viewBox="0 0 42 18" fill="none" xmlns="http://www.w3.org/2000/svg">
<path d="M12.8677 0.940015V2.81202H7.51568V17.5H5.40368V2.81202H0.0756836V0.940015H12.8677Z" fill="white"/>
<path d="M17.645 0.940015V7.73202H25.277V0.940015H27.389V17.5H25.277V9.55602H17.645V17.5H15.533V0.940015H17.645Z" fill="white"/>
<path d="M34.6122 0.916016C35.7962 0.916016 36.9962 0.924016 38.2122 0.940015C39.4442 0.940015 40.6122 0.980015 41.7162 1.06002L41.6202 2.71602H34.9722C34.0122 2.71602 33.5322 3.24402 33.5322 4.30002V7.90002H40.6842V9.60402H33.5322V14.14C33.5322 14.7 33.6442 15.108 33.8682 15.364C34.1082 15.62 34.4762 15.748 34.9722 15.748H41.6202L41.7162 17.38C40.6122 17.444 39.4442 17.484 38.2122 17.5C36.9962 17.516 35.7962 17.524 34.6122 17.524C33.6362 17.524 32.8602 17.268 32.2842 16.756C31.7242 16.228 31.4362 15.524 31.4202 14.644V3.79602C31.4362 2.90002 31.7242 2.19602 32.2842 1.68402C32.8602 1.17202 33.6362 0.916016 34.6122 0.916016Z" fill="white"/>
</svg>
